# xmcd
#
# Track frame offsets:
#	150
#	15506
#	29994
#	46626
#	58002
#	72570
#	83991
#	100770
#	110120
#	120745
#	131579
#	139921
#	153028
#	168899
#	182251
#
# Disc length: 2614 seconds
#
# Revision: 1
# Processed by: cddbd v1.5.1PL0 Copyright (c) Steve Scherf et al.
# Submitted via: EasyCDDAExtractor 7.1.0.1
#
DISCID=c70a340f
DTITLE=Various Artist folklore nuestra musica
DYEAR=1900
DGENRE=
TTITLE0=quisiera amarte menos
TTITLE1=la engañera
TTITLE2=chalten
TTITLE3=mi ultima flor
TTITLE4=la alhajita
TTITLE5=zamba de vargas
TTITLE6=el alcatraz
TTITLE7=señora chichera
TTITLE8=a pura ushuta
TTITLE9=chacarera del expediente
TTITLE10=tita
TTITLE11=cacique catan
TTITLE12=la yerba mora
TTITLE13=solar de los cardenales
TTITLE14=doña soledad
EXTD=
EXTT0=
EXTT1=
EXTT2=
EXTT3=
EXTT4=
EXTT5=
EXTT6=
EXTT7=
EXTT8=
EXTT9=
EXTT10=
EXTT11=
EXTT12=
EXTT13=
EXTT14=
PLAYORDER=
